<?xml version="1.0" encoding="UTF-8"?>
<svg id="_レイヤー_1" data-name="レイヤー_1" xmlns="http://www.w3.org/2000/svg" xmlns:xlink="http://www.w3.org/1999/xlink" version="1.1" viewBox="0 0 256 256">
  <!-- Generator: Adobe Illustrator 29.3.1, SVG Export Plug-In . SVG Version: 2.1.0 Build 151)  -->
  <defs>
    <style>
      .st0 {
        font-family: KozGoPr6N-Regular-83pv-RKSJ-H, 'Kozuka Gothic Pr6N';
        font-size: 12px;
      }

      .st1 {
        fill: url(#_名称未設定グラデーション_10);
      }
    </style>
    <linearGradient id="_名称未設定グラデーション_10" data-name="名称未設定グラデーション 10" x1="54.67" y1="50.52" x2="203.88" y2="211.19" gradientUnits="userSpaceOnUse">
      <stop offset="0" stop-color="#232936"/>
      <stop offset="1" stop-color="#12142f"/>
    </linearGradient>
  </defs>
  <text class="st0" transform="translate(-70.56 77.41)"><tspan x="0" y="0">✹</tspan></text>
  <path class="st1" d="M222.82,187.77c2.61,3.9.97,6.39-3.64,5.55l-38.52-7.06c-4.61-.85-8.53,2.3-8.71,6.98l-1.48,39.13c-.18,4.69-2.97,5.74-6.21,2.35l-27.01-28.35c-3.24-3.4-8.25-3.16-11.15.53l-24.2,30.79c-2.9,3.69-5.78,2.9-6.4-1.75l-5.19-38.82c-.62-4.65-4.82-7.41-9.33-6.13l-37.68,10.68c-4.51,1.28-6.38-1.05-4.15-5.18l18.62-34.45c2.23-4.13.45-8.83-3.95-10.44l-36.76-13.5c-4.4-1.62-4.54-4.6-.31-6.63l35.31-16.93c4.23-2.03,5.55-6.87,2.94-10.77l-21.8-32.53c-2.61-3.9-.97-6.39,3.64-5.55l38.52,7.06c4.61.85,8.53-2.3,8.71-6.98l1.48-39.13c.18-4.69,2.97-5.74,6.21-2.35l27.01,28.35c3.24,3.4,8.25,3.16,11.15-.53l24.2-30.79c2.9-3.69,5.78-2.9,6.4,1.75l5.19,38.82c.62,4.65,4.82,7.41,9.33,6.13l37.68-10.68c4.51-1.28,6.38,1.05,4.15,5.18l-18.62,34.45c-2.23,4.13-.45,8.83,3.95,10.44l36.76,13.5c4.4,1.62,4.54,4.6.31,6.63l-35.31,16.93c-4.23,2.03-5.55,6.87-2.94,10.77l21.8,32.53Z"/>
</svg>