<?xml version="1.0" encoding="UTF-8"?>
<svg id="_レイヤー_1" xmlns="http://www.w3.org/2000/svg" xmlns:xlink="http://www.w3.org/1999/xlink" version="1.1" viewBox="0 0 256 256">
  <!-- Generator: Adobe Illustrator 29.3.1, SVG Export Plug-In . SVG Version: 2.1.0 Build 151)  -->
  <defs>
    <style>
      .st0 {
        fill: url(#_名称未設定グラデーション);
      }
    </style>
    <linearGradient id="_名称未設定グラデーション" data-name="名称未設定グラデーション" x1="53.3" y1="209.9" x2="205.3" y2="46.3" gradientTransform="translate(10.5 -9.6) rotate(4.5)" gradientUnits="userSpaceOnUse">
      <stop offset="0" stop-color="#232936"/>
      <stop offset="1" stop-color="#12142f"/>
    </linearGradient>
  </defs>
  <path class="st0" d="M239.3,129.6l-35.6-16.3c-4.3-1.9-5.7-6.8-3.1-10.7l21.2-32.9c2.5-3.9.9-6.4-3.7-5.5l-38.4,7.7c-4.6.9-8.6-2.2-8.8-6.8l-2.2-39.1c-.3-4.7-3.1-5.7-6.2-2.2l-26.5,28.8c-3.2,3.5-8.2,3.3-11.2-.3l-24.7-30.4c-3-3.6-5.8-2.8-6.4,1.9l-4.5,38.9c-.5,4.7-4.7,7.5-9.2,6.3l-37.9-10c-4.5-1.2-6.4,1.2-4.1,5.2l19.2,34.1c2.3,4.1.6,8.8-3.8,10.5l-36.5,14.1c-4.4,1.7-4.5,4.7-.2,6.6l35.6,16.3c4.3,1.9,5.7,6.8,3.1,10.7l-21.2,32.9c-2.5,3.9-.9,6.4,3.7,5.5l38.4-7.7c4.6-.9,8.6,2.2,8.8,6.8l2.2,39.1c.3,4.7,3.1,5.7,6.2,2.2l26.5-28.8c3.2-3.5,8.2-3.3,11.2.3l24.7,30.4c3,3.6,5.8,2.8,6.4-1.9l4.5-38.9c.5-4.7,4.7-7.5,9.2-6.3l37.9,10c4.5,1.2,6.4-1.2,4.1-5.2h0s-19.2-34.1-19.2-34.1c-2.3-4.1-.6-8.8,3.8-10.5l36.5-14.1c4.4-1.7,4.5-4.7.2-6.6ZM88.9,141c-6.1-.5-9.9-14.6-8.6-31.5,1.3-16.9,7.3-30.3,13.4-29.8s9.9,14.6,8.6,31.5c-1.3,16.9-7.3,30.3-13.4,29.8ZM145.7,145.4c-6.1-.5-9.9-14.6-8.6-31.5,1.3-16.9,7.3-30.3,13.4-29.8s9.9,14.6,8.6,31.5c-1.3,16.9-7.3,30.3-13.4,29.8Z"/>
</svg>