<?xml version="1.0" encoding="UTF-8"?>
<svg id="_レイヤー_1" xmlns="http://www.w3.org/2000/svg" xmlns:xlink="http://www.w3.org/1999/xlink" version="1.1" viewBox="0 0 256 256">
  <!-- Generator: Adobe Illustrator 29.3.1, SVG Export Plug-In . SVG Version: 2.1.0 Build 151)  -->
  <defs>
    <style>
      .st0 {
        fill: url(#_名称未設定グラデーション);
      }
    </style>
    <linearGradient id="_名称未設定グラデーション" data-name="名称未設定グラデーション" x1="54" y1="209.3" x2="205.3" y2="46.4" gradientTransform="translate(10.5 -9.6) rotate(4.5)" gradientUnits="userSpaceOnUse">
      <stop offset="0" stop-color="#232936"/>
      <stop offset="1" stop-color="#12142f"/>
    </linearGradient>
  </defs>
  <path class="st0" d="M239.2,129.3l-35.4-16.2c-4.2-1.9-5.6-6.7-3.1-10.7l21.1-32.7c2.5-3.9.9-6.4-3.7-5.5l-38.2,7.7c-4.6.9-8.5-2.1-8.8-6.8l-2.1-38.9c-.3-4.7-3.1-5.7-6.2-2.2l-26.4,28.7c-3.2,3.4-8.2,3.3-11.1-.3l-24.6-30.2c-3-3.6-5.8-2.8-6.3,1.9l-4.5,38.7c-.5,4.6-4.7,7.5-9.2,6.3l-37.7-10c-4.5-1.2-6.3,1.2-4,5.2l19.1,34c2.3,4.1.6,8.8-3.8,10.5l-36.4,14.1c-4.4,1.7-4.4,4.7-.2,6.6l35.4,16.2c4.2,1.9,5.6,6.7,3.1,10.7l-21.1,32.7c-2.5,3.9-.9,6.4,3.7,5.5l38.2-7.7c4.6-.9,8.5,2.1,8.8,6.8l2.1,38.9c.3,4.7,3.1,5.7,6.2,2.2l26.4-28.7c3.2-3.4,8.2-3.3,11.1.3l24.6,30.2c3,3.6,5.8,2.8,6.3-1.9l4.5-38.7c.5-4.6,4.7-7.5,9.2-6.3l37.7,10c4.5,1.2,6.3-1.2,4-5.2h0s-19.1-34-19.1-34c-2.3-4.1-.6-8.8,3.8-10.5l36.4-14.1c4.4-1.7,4.4-4.7.2-6.6ZM92.7,142.5c-6-.5-9.9-14.5-8.5-31.4s7.3-30.2,13.3-29.7c6,.5,9.9,14.5,8.5,31.4-1.3,16.9-7.3,30.2-13.3,29.7ZM149.2,146.9c-6-.5-9.9-14.5-8.5-31.4,1.3-16.9,7.3-30.2,13.3-29.7s9.9,14.5,8.5,31.4c-1.3,16.9-7.3,30.2-13.3,29.7Z"/>
</svg>