<?xml version="1.0" encoding="UTF-8"?>
<svg id="_レイヤー_1" data-name="レイヤー_1" xmlns="http://www.w3.org/2000/svg" xmlns:xlink="http://www.w3.org/1999/xlink" version="1.1" viewBox="0 0 1800 500">
  <!-- Generator: Adobe Illustrator 29.3.1, SVG Export Plug-In . SVG Version: 2.1.0 Build 151)  -->
  <defs>
    <style>
      .st0 {
        fill: #181b31;
      }

      .st1 {
        fill: url(#_名称未設定グラデーション_2);
      }

      .st2 {
        fill: #fff;
      }
    </style>
    <linearGradient id="_名称未設定グラデーション_2" data-name="名称未設定グラデーション 2" x1="186.93" y1="426.37" x2="431.96" y2="162.51" gradientTransform="translate(22.32 -69.3) rotate(4.46)" gradientUnits="userSpaceOnUse">
      <stop offset="0" stop-color="#232936"/>
      <stop offset="1" stop-color="#12142f"/>
    </linearGradient>
  </defs>
  <g>
    <path class="st1" d="M355.29,427.85c-2.07,0-5.24-.87-8.64-5.04l-38.99-47.9c-1.57-1.93-3.67-2.99-5.9-2.99-2.08,0-4.08.94-5.65,2.64l-41.83,45.44c-3.44,3.74-6.51,4.53-8.47,4.53-3.74,0-7.89-2.77-8.31-10.55l-3.39-61.67c-.23-4.28-3.26-7.26-7.37-7.26-.58,0-1.17.06-1.77.18l-60.56,12.17c-1.27.25-2.48.38-3.59.38-5.05,0-7.2-2.57-8.04-4.11-.94-1.73-1.99-5.46,1.59-11.02l33.51-51.88c1.3-2.02,1.69-4.27,1.08-6.34-.6-2.07-2.14-3.75-4.31-4.75l-56.15-25.74c-6.48-2.98-7.34-7.01-7.27-9.14.07-2.14,1.17-6.11,7.82-8.69l57.6-22.29c2.24-.87,3.87-2.46,4.6-4.49.73-2.03.48-4.3-.7-6.4l-30.28-53.82c-3-5.34-2.22-8.88-1.03-10.91.84-1.43,2.93-3.83,7.55-3.83,1.35,0,2.82.21,4.39.62l59.7,15.83c.76.2,1.52.3,2.25.3,3.89,0,6.82-2.74,7.3-6.81l7.13-61.34c1.09-9.31,6.77-10.04,8.48-10.04,2.06,0,5.24.87,8.64,5.04l38.99,47.9c1.57,1.93,3.67,2.99,5.9,2.99,2.08,0,4.08-.94,5.65-2.64l41.83-45.44c3.44-3.74,6.51-4.53,8.47-4.53,3.74,0,7.89,2.77,8.31,10.55l3.39,61.67c.23,4.28,3.26,7.26,7.37,7.26.58,0,1.17-.06,1.77-.18l60.56-12.17c1.27-.26,2.48-.39,3.59-.39,5.05,0,7.2,2.57,8.04,4.11.94,1.73,1.99,5.47-1.59,11.02l-33.51,51.88c-1.3,2.02-1.69,4.27-1.08,6.34.6,2.07,2.14,3.75,4.31,4.75l56.15,25.74c6.48,2.98,7.34,7.01,7.27,9.14s-1.17,6.11-7.82,8.68l-57.6,22.29c-2.24.87-3.87,2.46-4.6,4.49-.73,2.03-.48,4.3.7,6.4l30.28,53.82c3,5.34,2.22,8.88,1.03,10.91-.84,1.43-2.93,3.83-7.55,3.83h0c-1.35,0-2.82-.21-4.39-.62l-59.7-15.83c-.76-.2-1.52-.3-2.25-.3-3.89,0-6.82,2.74-7.3,6.81l-7.13,61.34c-1.09,9.31-6.77,10.04-8.48,10.04ZM345.59,185.64c-5.39,0-14.54,16.9-16.61,43.38-2.12,27.11,4.43,45.03,9.86,45.45.06,0,.12,0,.18,0,5.39,0,14.54-16.9,16.61-43.38.97-12.48.17-24.29-2.27-33.26-2.38-8.75-5.58-12.04-7.59-12.19-.06,0-.12,0-.18,0ZM256.1,178.65c-5.39,0-14.54,16.9-16.61,43.38-.97,12.48-.17,24.29,2.27,33.26,2.38,8.75,5.57,12.04,7.59,12.19.06,0,.12,0,.18,0,5.39,0,14.54-16.9,16.61-43.38.97-12.48.17-24.29-2.27-33.26-2.38-8.75-5.58-12.04-7.59-12.19-.06,0-.12,0-.18,0Z"/>
    <path class="st2" d="M256.05,76.95c1.65,0,3.58,1.16,5.54,3.57l38.99,47.89c2.42,2.97,5.7,4.47,9,4.47,3.08,0,6.17-1.3,8.59-3.93l41.83-45.44c2.01-2.18,3.93-3.24,5.53-3.24,2.39,0,4.08,2.35,4.32,6.77l3.39,61.67c.36,6.5,5.25,11.04,11.36,11.04.83,0,1.69-.08,2.55-.26l60.56-12.17c1.03-.21,1.97-.31,2.8-.31,5.06,0,6.53,3.62,3.09,8.96l-33.51,51.88c-4.01,6.22-1.79,13.83,4.93,16.9l56.14,25.74c6.72,3.09,6.57,7.79-.33,10.46l-57.6,22.28c-6.9,2.67-9.57,10.12-5.94,16.57l30.28,53.82h0c2.99,5.31,1.56,8.77-3.03,8.77-.98,0-2.11-.16-3.37-.49l-59.7-15.83c-1.11-.3-2.21-.44-3.28-.44-5.77,0-10.55,4.15-11.27,10.34l-7.13,61.34c-.5,4.27-2.23,6.5-4.51,6.5-1.65,0-3.58-1.16-5.54-3.57l-38.99-47.89c-2.42-2.97-5.7-4.47-9-4.47-3.08,0-6.17,1.3-8.59,3.93l-41.83,45.44c-2.01,2.18-3.93,3.24-5.53,3.24-2.39,0-4.08-2.35-4.32-6.77l-3.39-61.67c-.36-6.5-5.25-11.04-11.36-11.04-.83,0-1.69.08-2.55.26l-60.56,12.17c-1.03.21-1.97.31-2.8.31-5.06,0-6.53-3.62-3.09-8.96l33.51-51.88c4.01-6.22,1.79-13.83-4.93-16.9l-56.14-25.74c-6.72-3.09-6.57-7.79.33-10.46l57.6-22.28c6.9-2.67,9.57-10.12,5.94-16.57l-30.28-53.82c-2.99-5.31-1.56-8.77,3.03-8.77.98,0,2.11.16,3.37.49l59.7,15.83c1.11.3,2.21.44,3.28.44,5.77,0,10.55-4.15,11.27-10.34l7.13-61.34c.5-4.27,2.23-6.5,4.51-6.5M249.53,271.49c9.39,0,18.55-20.8,20.6-47.07,2.09-26.73-3.97-49.01-13.54-49.75-.17-.01-.33-.02-.49-.02-9.39,0-18.55,20.8-20.6,47.07-2.09,26.73,3.97,49.01,13.54,49.75.17.01.33.02.49.02M339.02,278.48c9.39,0,18.55-20.8,20.6-47.07,2.09-26.73-3.97-49.01-13.54-49.75-.17-.01-.33-.02-.49-.02-9.39,0-18.55,20.8-20.6,47.07-2.09,26.73,3.97,49.01,13.54,49.75.17.01.33.02.49.02M256.05,68.95h0c-5.01,0-11.29,3.55-12.46,13.57l-7.13,61.35c-.24,2.01-1.51,3.27-3.33,3.27-.39,0-.8-.06-1.22-.17l-59.71-15.83c-1.91-.5-3.73-.76-5.42-.76-4.84,0-8.85,2.12-11.01,5.81-1.4,2.4-3.14,7.52,1,14.88l30.29,53.83c.61,1.08.75,2.15.42,3.08-.33.93-1.12,1.66-2.28,2.11l-57.59,22.28c-9.14,3.54-10.3,9.78-10.38,12.29-.08,2.52.7,8.81,9.6,12.9l56.15,25.74c1.13.52,1.87,1.29,2.14,2.24.28.95.07,2.01-.6,3.05l-33.5,51.88c-4.71,7.29-3.11,12.6-1.75,15.11,2.15,3.94,6.36,6.19,11.55,6.19,1.38,0,2.85-.16,4.38-.46l60.55-12.17c.34-.07.67-.1.98-.1,1.96,0,3.26,1.33,3.37,3.48l3.39,61.68c.58,10.58,6.99,14.33,12.31,14.33,2.76,0,6.99-1.01,11.41-5.82l41.83-45.44c.81-.88,1.75-1.35,2.71-1.35,1.02,0,1.99.53,2.8,1.52l38.99,47.89c4.4,5.39,8.82,6.52,11.75,6.52,5.01,0,11.29-3.55,12.46-13.57l7.13-61.35c.24-2.01,1.51-3.27,3.33-3.27.39,0,.8.06,1.22.17l59.71,15.83c1.91.5,3.73.76,5.42.76,4.84,0,8.85-2.12,11.01-5.81,1.4-2.4,3.14-7.52-1-14.88l-30.29-53.83c-.61-1.08-.75-2.15-.42-3.08.33-.93,1.12-1.66,2.28-2.11l57.59-22.28c9.14-3.54,10.3-9.78,10.38-12.29.08-2.52-.7-8.81-9.6-12.9l-56.15-25.74c-1.13-.52-1.87-1.29-2.14-2.24-.28-.95-.07-2.01.6-3.05l33.5-51.88c4.71-7.29,3.11-12.6,1.75-15.11-2.15-3.94-6.36-6.19-11.55-6.19-1.38,0-2.85.16-4.38.46l-60.55,12.17c-.34.07-.67.1-.98.1-1.96,0-3.26-1.33-3.37-3.48l-3.39-61.68c-.58-10.58-6.99-14.33-12.31-14.33-2.76,0-6.99,1.01-11.41,5.82l-41.83,45.44c-.81.88-1.75,1.35-2.71,1.35-1.02,0-1.99-.53-2.8-1.52l-38.99-47.89c-4.4-5.39-8.82-6.52-11.75-6.52h0ZM249.67,263.25c-2.86-2.8-8.06-17.08-6.2-40.91,1.86-23.83,9.22-37.13,12.48-39.45,2.86,2.8,8.06,17.08,6.2,40.91-1.86,23.83-9.22,37.13-12.48,39.45h0ZM339.17,270.24c-2.86-2.8-8.06-17.08-6.2-40.91,1.86-23.83,9.22-37.13,12.48-39.45,2.86,2.8,8.06,17.08,6.2,40.91-1.86,23.83-9.22,37.13-12.48,39.45h0Z"/>
  </g>
  <g>
    <g>
      <path class="st0" d="M625.33,336.88c-19.74,0-40.16-1.15-53.88-14.87-8.75-8.53-13.21-21.01-13.21-37.07v-106.96c-.25-4.45,1.1-8.37,3.9-11.36,3.07-3.26,7.7-5.14,12.72-5.14s9.75,1.89,12.88,5.18c2.83,2.98,4.22,6.88,4.02,11.29v106.99c0,6.61,1.14,11.11,3.39,13.36,4.38,4.38,16.65,4.89,25.49,4.89,1.53,0,3.07-.02,4.61-.04h2.14c33.02,0,34.6-3.83,34.6-15.92v-109.06c-.2-4.41,1.19-8.31,4.02-11.29,3.13-3.29,7.83-5.18,12.88-5.18s9.65,1.87,12.72,5.13c2.8,2.98,4.15,6.91,3.9,11.36v109.04c0,21.37-8.56,35.96-25.43,43.35-13.82,6.06-30.34,6.09-42.47,6.09-1.88.21-2.09.21-2.3.21Z"/>
      <path class="st2" d="M574.86,165.49c6.64,0,13.32,4.15,12.9,12.37v107.08c0,7.68,1.45,13.07,4.57,16.19,5.14,5.14,16.45,6.06,28.32,6.06,1.55,0,3.11-.02,4.67-.04h2.08c32.17,0,38.6-3.32,38.6-19.92v-109.16c-.42-8.22,6.27-12.37,12.9-12.37s13.14,4.1,12.62,12.37v109.16c0,45.24-40.05,45.45-64.12,45.45,0,0-1.87.21-2.08.21-18.68,0-38.18-.83-51.05-13.7-8.09-7.89-12.04-19.51-12.04-34.24v-107.08c-.52-8.27,6.03-12.37,12.62-12.37M574.86,157.49h0c-6.12,0-11.82,2.33-15.64,6.4-3.55,3.77-5.27,8.68-4.99,14.2v106.86c0,17.15,4.85,30.59,14.41,39.93,14.8,14.77,36.11,16.01,56.67,16.01.37,0,.62,0,2.52-.21,12.46,0,29.36-.08,43.86-6.43,8.56-3.75,15.25-9.29,19.91-16.48,5.25-8.12,7.92-18.39,7.92-30.53v-108.93c.28-5.52-1.44-10.43-4.99-14.2-3.82-4.06-9.52-6.4-15.64-6.4s-11.9,2.34-15.78,6.43c-3.58,3.76-5.35,8.65-5.12,14.13v108.97c0,7.58-1.48,8.34-2.91,9.08-4.86,2.51-16.72,2.84-27.69,2.84h-2.2c-1.69.03-3.18.04-4.55.04-15.66,0-20.97-2.02-22.67-3.72-.52-.52-2.22-2.82-2.22-10.53v-106.9c.22-5.48-1.54-10.36-5.12-14.13-3.88-4.08-9.63-6.42-15.78-6.42h0Z"/>
    </g>
    <g>
      <path class="st0" d="M823.81,337.27c-14.24,0-26.36-8.89-30.88-22.65,0,0-37.29-118.5-37.29-118.5-.03-.06-.06-.14-.1-.21h-.05v124.43c.2,4.48-1.21,8.43-4.07,11.44-3.13,3.29-7.81,5.18-12.83,5.18s-9.6-1.87-12.67-5.13c-2.84-3.02-4.2-7-3.95-11.51v-124.4c0-16.72,11.52-30.37,28.02-33.2,1.9-.3,3.76-.44,5.59-.44,14.66,0,27.17,9.12,31.87,23.25l35.78,113.71v-121.07c-.2-4.48,1.21-8.43,4.07-11.45,3.13-3.29,7.81-5.18,12.83-5.18s9.61,1.87,12.67,5.13c2.84,3.02,4.2,6.99,3.95,11.51v126.26c0,16.45-11.28,29.77-27.43,32.38-1.84.29-3.69.44-5.52.44Z"/>
      <path class="st2" d="M840.14,165.54c6.59,0,13.14,4.15,12.62,12.53v126.38c0,14.53-9.96,26.15-24.07,28.43-1.65.26-3.27.39-4.88.39-12.34,0-23.04-7.59-27.08-19.9l-37.35-118.7c-.37-.74-1.07-2.8-3.56-2.8-.31,0-.64.03-1,.1-3.32.42-3.32,3.11-3.32,3.94v124.51c.42,8.33-6.27,12.53-12.9,12.53s-13.14-4.15-12.62-12.53v-124.51c0-14.73,10.17-26.77,24.69-29.26,1.66-.26,3.3-.38,4.92-.38,12.74,0,23.84,7.8,28.08,20.51l37.35,118.7c.19.75.71,2.34,2.79,2.34.23,0,.47-.02.74-.06,2.7-.41,2.7-2.49,2.7-3.32v-126.38c-.42-8.33,6.27-12.53,12.9-12.53M840.14,157.54h0c-6.11,0-11.85,2.34-15.73,6.42-3.61,3.8-5.4,8.73-5.17,14.29v94.95l-27.95-88.81-.02-.06-.02-.06c-5.26-15.78-19.26-25.98-35.67-25.98-2.03,0-4.1.16-6.14.48h-.06s-.06.02-.06.02c-18.45,3.16-31.34,18.44-31.34,37.15v124.29c-.28,5.59,1.46,10.55,5.04,14.36,3.82,4.06,9.5,6.39,15.59,6.39s11.85-2.34,15.73-6.42c3.61-3.8,5.4-8.73,5.17-14.29v-98.56l29.61,94.09v.05s.03.05.03.05c5.07,15.43,18.68,25.4,34.68,25.4,2.03,0,4.1-.16,6.14-.49,18.15-2.94,30.81-17.87,30.81-36.33v-126.16c.28-5.59-1.46-10.55-5.04-14.36-3.82-4.06-9.5-6.39-15.58-6.39h0Z"/>
    </g>
    <g>
      <path class="st0" d="M898.87,337.17c-5.02,0-9.7-1.89-12.83-5.18-2.86-3.01-4.27-6.97-4.07-11.45v-142.59c-.2-4.48,1.21-8.43,4.07-11.45,3.13-3.29,7.81-5.18,12.83-5.18s9.6,1.87,12.67,5.13c2.83,3.02,4.2,6.99,3.95,11.51v142.54c.25,4.52-1.12,8.5-3.95,11.51-3.07,3.26-7.69,5.13-12.67,5.13Z"/>
      <path class="st2" d="M898.87,165.34c6.59,0,13.14,4.15,12.62,12.53v142.77c.52,8.38-6.03,12.53-12.62,12.53s-13.32-4.2-12.9-12.53v-142.77c-.42-8.33,6.27-12.53,12.9-12.53M898.87,157.34h0c-6.11,0-11.85,2.34-15.73,6.42-3.61,3.8-5.4,8.73-5.17,14.29v142.42c-.23,5.55,1.56,10.49,5.17,14.29,3.88,4.08,9.61,6.42,15.73,6.42s11.77-2.33,15.59-6.39c3.58-3.81,5.32-8.77,5.04-14.36v-142.33c.28-5.59-1.46-10.55-5.04-14.36-3.82-4.06-9.5-6.39-15.58-6.39h0Z"/>
    </g>
    <g>
      <path class="st0" d="M1085.15,336.96c-4.99,0-9.6-1.87-12.67-5.13-2.83-3.02-4.2-6.99-3.95-11.51v-116.81l-21.25,55.1c-.24.84-.58,1.44-.79,1.82-.03.05-.05.1-.08.14l-.11.34-.23.38c-5.86,9.69-15.27,15.47-25.19,15.47-.58,0-1.17-.02-1.75-.06-10.26-.49-19.15-6.79-23.71-16.87l-.36-.79v-.16c-.02-.05-.03-.1-.05-.16-1.45-3.65-14.96-37.67-21.21-54.6v116.19c.25,4.52-1.12,8.5-3.95,11.51-3.07,3.26-7.69,5.13-12.67,5.13s-9.7-1.89-12.83-5.18c-2.86-3.01-4.27-6.97-4.07-11.45v-127.74c0-29.48,23.9-30.98,28.7-30.98h5.39c9.31,0,21.88,4.36,28.9,25.13,2.41,7.24,11.63,31.03,17.77,46.61,6.32-16.29,17.93-46.58,18.08-46.97l.12-.32c2.53-6.69,9.25-24.45,28.72-24.45h5.4c4.79,0,28.69,1.49,28.69,30.98v127.74c.2,4.48-1.21,8.43-4.07,11.45-3.13,3.29-7.81,5.18-12.83,5.18Z"/>
      <path class="st2" d="M1073.35,165.62c5.81,0,24.69,2.08,24.69,26.98v127.83c.42,8.33-6.27,12.53-12.9,12.53s-13.14-4.15-12.62-12.53v-127.83c0-.62-.21-.83-.21-1.45-.61-.1-1.12-.15-1.55-.15-2.32,0-2.27,1.51-3.84,5.54l-23.45,60.8c-.21.83-.62,1.25-.83,1.87-5.1,8.44-13.18,13.54-21.76,13.54-.49,0-.98-.02-1.48-.05-8.72-.42-16.39-5.81-20.34-14.53,0-.21-.21-.42-.21-.62-.83-2.08-19.71-49.6-23.66-61.43-1.22-4-1.56-5.09-3.84-5.09-.44,0-.95.04-1.55.11v129.28c.52,8.38-6.03,12.53-12.62,12.53s-13.32-4.2-12.9-12.53v-127.83c0-24.9,18.88-26.98,24.7-26.98h5.39c11.62,0,20.13,7.68,25.11,22.41,3.11,9.34,17.02,44.82,21.58,56.24,2.7-6.64,21.79-56.45,21.79-56.45,2.28-6.02,8.09-22.2,25.11-22.2h5.4M1073.35,157.62h-5.4c-22.24,0-29.94,20.35-32.46,27.04l-.12.33c-.12.3-8.05,20.99-14.36,37.35-5.61-14.37-12.01-31.03-13.94-36.83-2.94-8.7-7.08-15.48-12.32-20.16-5.72-5.12-12.58-7.72-20.38-7.72h-5.39c-15.08,0-32.7,9.16-32.7,34.98v127.65c-.23,5.55,1.56,10.49,5.17,14.29,3.88,4.08,9.61,6.42,15.73,6.42s11.77-2.33,15.59-6.39c3.58-3.81,5.32-8.77,5.04-14.36v-94.36c5.67,14.63,11.73,29.91,13.26,33.75v.29l.71,1.57c5.18,11.44,15.33,18.62,27.16,19.22.64.04,1.3.06,1.94.06,11.33,0,22.02-6.5,28.61-17.4l.46-.76.14-.42c.26-.47.65-1.25.97-2.27l13.46-34.91v95.22c-.28,5.59,1.46,10.55,5.04,14.36,3.82,4.06,9.5,6.39,15.59,6.39s11.85-2.34,15.73-6.42c3.61-3.8,5.4-8.73,5.17-14.29v-127.65c0-25.82-17.61-34.98-32.69-34.98h0Z"/>
    </g>
    <g>
      <path class="st0" d="M1145.12,337.22c-5.02,0-9.65-1.87-12.72-5.13-2.8-2.98-4.15-6.91-3.9-11.36v-90.36c0-29.08,9.72-49.36,28.9-60.28,15.38-8.76,32.92-8.98,41.35-9.08h.32c28.33,0,40.25,8.15,47.47,15.26,11.55,11.33,17.17,28.29,17.17,51.83v92.46c.2,4.46-1.2,8.4-4.05,11.39-3.12,3.28-7.79,5.15-12.82,5.15s-9.71-1.88-12.82-5.15c-2.85-2.99-4.24-6.93-4.05-11.39v-43.01h-67.95v43.22c.2,4.41-1.19,8.31-4.02,11.29-3.13,3.29-7.83,5.18-12.88,5.18ZM1229.97,246.08v-18c0-13.71-2.39-23.36-6.92-27.88-4.03-4.03-10.9-5.68-23.72-5.68-25.8.2-37.31,5.42-37.31,35.84v15.71h67.95Z"/>
      <path class="st2" d="M1199.11,165c14.11,0,31.75,1.45,44.62,14.11,10.79,10.58,15.98,26.56,15.98,48.97v92.55c.42,8.3-6.23,12.45-12.87,12.45s-13.28-4.15-12.87-12.45v-47.11h-75.95v47.31c.42,8.22-6.27,12.37-12.9,12.37s-13.14-4.1-12.62-12.37v-90.48c0-64.95,50.22-65.16,66.61-65.37M1158.02,250.08h75.95v-22c0-14.94-2.7-25.32-8.09-30.71-4.98-4.98-12.87-6.85-26.56-6.85-27.39.21-41.3,6.43-41.3,39.84v19.71M1199.11,157h-.1s-.32,0-.32,0c-8.76.11-27,.34-43.27,9.61-9.41,5.36-16.79,12.95-21.96,22.56-5.95,11.07-8.96,24.93-8.96,41.2v90.25c-.28,5.52,1.44,10.43,4.99,14.2,3.82,4.06,9.52,6.4,15.63,6.4s11.9-2.34,15.78-6.43c3.58-3.76,5.35-8.65,5.12-14.13v-39.13h59.95v38.93c-.22,5.54,1.55,10.45,5.15,14.23,3.87,4.06,9.6,6.4,15.72,6.4s11.85-2.33,15.72-6.4c3.59-3.78,5.37-8.7,5.15-14.23v-92.38c0-24.67-6.01-42.56-18.38-54.69-14.77-14.53-34.6-16.4-50.22-16.4h0ZM1166.02,242.08v-11.71c0-8.57.78-20.62,7.5-26.23,4.59-3.83,12.31-5.51,25.82-5.61,11.48,0,17.72,1.35,20.88,4.5,2.15,2.15,5.75,8.26,5.75,25.06v14h-59.95Z"/>
    </g>
    <g>
      <path class="st0" d="M1306.36,336.96c-4.99,0-9.61-1.87-12.67-5.13-2.83-3.02-4.2-7-3.95-11.51v-131.24c0-14.22,11.57-25.79,25.79-25.79,5.74-.02,56.24-.21,56.45-.21,43.95,0,49.03,30.35,49.03,53.18,0,27.45-9.51,44.89-28.29,51.92l16.82,46.24c2.08,5.03,1.65,10.16-1.2,14.44-3.25,4.88-9.34,8.04-15.51,8.04-7.22,0-12.77-4.13-14.89-11.05l-19.74-54.29c-10.43.14-24.98.16-34.92.16v48.62c.2,4.48-1.21,8.43-4.07,11.44-3.13,3.29-7.81,5.18-12.83,5.18ZM1323.26,238.19c15-.02,35.99-.13,47.78-.2h.93c10.75,0,15.51-.88,15.51-21.74,0-9.83-.84-14.97-2.82-17.17-1.64-1.83-4.96-2.48-12.68-2.48-.81,0-33.55.17-48.72.2v41.39Z"/>
      <path class="st2" d="M1371.97,167.07c40.05,0,45.03,26.36,45.03,49.18,0,27.6-9.96,43.99-29.47,49.39l18.26,50.22c4.07,9.72-4.75,17.03-12.98,17.03-4.77,0-9.34-2.45-11.09-8.32l-20.75-57.07c-11.83.21-30.92.21-41.71.21v52.71c.42,8.33-6.27,12.53-12.9,12.53s-13.14-4.15-12.62-12.53v-131.36c0-12.04,9.75-21.79,21.79-21.79,0,0,56.24-.21,56.45-.21M1319.26,242.2c19.09,0,52.5-.21,52.71-.21,13.7,0,19.51-3.53,19.51-25.73s-3.74-23.66-19.51-23.66c0,0-40.26.21-52.71.21v49.39M1371.97,159.07c-.21,0-47.08.17-56.47.21-16.4,0-29.76,13.36-29.76,29.79v131.14c-.28,5.59,1.46,10.55,5.04,14.36,3.82,4.06,9.5,6.39,15.59,6.39s11.85-2.34,15.73-6.42c3.61-3.8,5.4-8.73,5.17-14.29v-44.53c8.63,0,19.41-.03,28.14-.13l18.74,51.53c2.65,8.51,9.78,13.78,18.68,13.78,7.47,0,14.87-3.86,18.84-9.82,3.6-5.41,4.16-11.83,1.6-18.1l-15.49-42.6c7.89-3.73,14.15-9.42,18.68-16.98,5.68-9.47,8.56-21.97,8.56-37.13,0-21.72-5.04-31.85-8.83-37.57-8.62-13.02-23.49-19.61-44.21-19.61h0ZM1327.26,200.79c16.39-.05,44.41-.19,44.75-.19,7.51,0,9.28.72,9.67,1.15.67.75,1.8,3.63,1.8,14.51s-1.45,14.55-2.67,15.96c-.71.83-2.37,1.77-8.84,1.77-.02,0-.35,0-.95,0-10.77.06-29.22.16-43.76.19v-33.4h0Z"/>
    </g>
    <g>
      <path class="st0" d="M1553.92,337.68c-5.12,0-9.58-2.51-12.58-7.07l-52.27-69.7-13.5,10.43v49.18c.25,4.45-1.1,8.37-3.9,11.36-3.07,3.26-7.7,5.13-12.72,5.13s-9.75-1.89-12.88-5.18c-2.83-2.98-4.22-6.88-4.02-11.29v-142.79c-.2-4.41,1.19-8.31,4.02-11.29,3.13-3.29,7.83-5.18,12.88-5.18s9.65,1.87,12.72,5.13c2.8,2.98,4.15,6.91,3.9,11.36v52.23l71.68-56.47c2.95-2.57,6.4-3.93,9.99-3.93,7.27,0,14.25,5.57,16.59,13.25,2.08,6.84-.2,13.31-6.11,17.34l-51.99,40.27,52.35,70.2c4.03,4.73,4.9,10.6,2.38,16.13-2.93,6.41-9.73,10.88-16.54,10.88Z"/>
      <path class="st2" d="M1458.96,165.28c6.59,0,13.14,4.1,12.62,12.37v60.6l78.24-61.63c2.39-2.11,4.96-3.01,7.43-3.01,10.42,0,19.36,15.8,8.13,23.35l-55.2,42.75,54.79,73.46c7.88,9.09-1.73,20.51-11.04,20.51-3.44,0-6.84-1.56-9.3-5.36l-54.79-73.05-18.26,14.11v51.26c.52,8.27-6.03,12.37-12.62,12.37s-13.32-4.15-12.9-12.37v-142.98c-.42-8.22,6.27-12.37,12.9-12.37M1458.96,157.28c-6.15,0-11.9,2.34-15.78,6.43-3.58,3.76-5.35,8.65-5.12,14.13v142.62c-.22,5.48,1.54,10.36,5.12,14.13,3.88,4.08,9.63,6.43,15.78,6.43s11.82-2.33,15.63-6.4c3.55-3.77,5.27-8.68,4.99-14.2v-47.11l8.73-6.75,49.77,66.36c3.71,5.57,9.47,8.76,15.85,8.76,8.33,0,16.62-5.44,20.18-13.22,3.13-6.86,2.05-14.41-2.88-20.28l-49.93-66.96,48.8-37.79c7.24-5.01,10.15-13.31,7.58-21.74-2.84-9.32-11.42-16.08-20.41-16.08-4.54,0-8.87,1.68-12.54,4.85l-65.13,51.31v-43.88c.28-5.52-1.44-10.43-4.99-14.2-3.82-4.06-9.52-6.4-15.63-6.4h0Z"/>
    </g>
  </g>
</svg>